<?xml version="1.0" encoding="UTF-8" standalone="no"?>
<!-- Created with Inkscape (http://www.inkscape.org/) -->

<svg
   xmlns:dc="http://purl.org/dc/elements/1.1/"
   xmlns:cc="http://creativecommons.org/ns#"
   xmlns:rdf="http://www.w3.org/1999/02/22-rdf-syntax-ns#"
   xmlns:svg="http://www.w3.org/2000/svg"
   xmlns="http://www.w3.org/2000/svg"
   xmlns:sodipodi="http://sodipodi.sourceforge.net/DTD/sodipodi-0.dtd"
   xmlns:inkscape="http://www.inkscape.org/namespaces/inkscape"
   width="500"
   height="262"
   id="svg2"
   version="1.1"
   inkscape:version="0.48.4 r9939"
   sodipodi:docname="advection.svg">
  <defs
     id="defs4">
    <inkscape:path-effect
       effect="spiro"
       id="path-effect4661"
       is_visible="true" />
    <inkscape:path-effect
       effect="spiro"
       id="path-effect4657"
       is_visible="true" />
    <inkscape:path-effect
       effect="spiro"
       id="path-effect4653"
       is_visible="true" />
    <inkscape:path-effect
       effect="spiro"
       id="path-effect4649"
       is_visible="true" />
    <inkscape:path-effect
       effect="spiro"
       id="path-effect4645"
       is_visible="true" />
    <inkscape:path-effect
       effect="spiro"
       id="path-effect4641"
       is_visible="true" />
    <marker
       inkscape:stockid="Arrow2Mend"
       orient="auto"
       refY="0"
       refX="0"
       id="Arrow2Mend"
       style="overflow:visible">
      <path
         id="path3786"
         style="fill-rule:evenodd;stroke-width:0.625;stroke-linejoin:round"
         d="M 8.7185878,4.0337352 -2.2072895,0.01601326 8.7185884,-4.0017078 c -1.7454984,2.3720609 -1.7354408,5.6174519 -6e-7,8.035443 z"
         transform="scale(-0.6,-0.6)"
         inkscape:connector-curvature="0" />
    </marker>
    <marker
       inkscape:stockid="Arrow1Mend"
       orient="auto"
       refY="0"
       refX="0"
       id="Arrow1Mend"
       style="overflow:visible">
      <path
         id="path3768"
         d="M 0,0 5,-5 -12.5,0 5,5 0,0 z"
         style="fill-rule:evenodd;stroke:#000000;stroke-width:1pt"
         transform="matrix(-0.4,0,0,-0.4,-4,0)"
         inkscape:connector-curvature="0" />
    </marker>
    <inkscape:path-effect
       effect="spiro"
       id="path-effect4661-3"
       is_visible="true" />
  </defs>
  <sodipodi:namedview
     id="base"
     pagecolor="#ffffff"
     bordercolor="#666666"
     borderopacity="1.0"
     inkscape:pageopacity="0.0"
     inkscape:pageshadow="2"
     inkscape:zoom="0.98994949"
     inkscape:cx="210.35107"
     inkscape:cy="254.99588"
     inkscape:document-units="px"
     inkscape:current-layer="layer1"
     showgrid="false"
     inkscape:window-width="1366"
     inkscape:window-height="713"
     inkscape:window-x="0"
     inkscape:window-y="27"
     inkscape:window-maximized="1" />
  <metadata
     id="metadata7">
    <rdf:RDF>
      <cc:Work
         rdf:about="">
        <dc:format>image/svg+xml</dc:format>
        <dc:type
           rdf:resource="http://purl.org/dc/dcmitype/StillImage" />
        <dc:title></dc:title>
      </cc:Work>
    </rdf:RDF>
  </metadata>
  <g
     inkscape:label="Layer 1"
     inkscape:groupmode="layer"
     id="layer1"
     transform="translate(0,-790.36215)">
    <path
       style="fill:none;stroke:#000000;stroke-width:2;stroke-linecap:butt;stroke-linejoin:miter;stroke-miterlimit:4;stroke-opacity:1;stroke-dasharray:none;marker-end:url(#Arrow2Mend)"
       d="m 18.182746,1019.0271 471.741234,0"
       id="path4387"
       inkscape:connector-curvature="0" />
    <path
       style="fill:none;stroke:#000000;stroke-width:2;stroke-linecap:butt;stroke-linejoin:miter;stroke-miterlimit:4;stroke-opacity:0.55251142;stroke-dasharray:4, 2;stroke-dashoffset:0"
       d="m -139.40105,1008.9256 c 8.79361,-4.6662 18.41872,-7.76 28.28427,-9.09135 10.48534,-1.41497 21.122412,-0.84834 31.699718,-1.10356 10.577306,-0.25522 21.384221,-1.40378 30.929737,-5.96751 7.198777,-3.44175 13.374267,-8.68213 19.1929,-14.14213 8.408224,-7.88998 16.289568,-16.38721 25.3961326,-23.45973 9.1065642,-7.07251 19.7012294,-12.74886 31.1724074,-13.91592 5.039429,-0.5127 10.160614,-0.14883 15.15229,-1.01015 9.439975,-1.62889 17.545514,-7.4444 25.25381,-13.13198 11.956037,-8.82178 23.963284,-17.79493 37.468225,-23.99067 13.50495,-6.19574 28.82618,-9.4769 43.34397,-6.31391 12.89627,2.80971 24.29918,10.50372 33.69878,19.76956 9.39961,9.26584 17.04214,20.12589 24.89007,30.73807 6.5666,8.87952 13.36517,17.68451 21.60418,25.03874 8.23902,7.35424 18.0654,13.24537 28.90345,15.36736 4.88513,0.95646 9.88348,1.13578 14.83767,1.62085 4.95419,0.48507 9.95673,1.30173 14.45675,3.42991 3.49859,1.65458 6.62652,4.08741 9.09138,7.07107"
       id="path4659"
       inkscape:path-effect="#path-effect4661"
       inkscape:original-d="m -139.40105,1008.9256 c 0.65834,-8.0686 14.52982,-4.5065 28.28427,-9.09135 10.95854,-3.65285 53.713895,-2.61329 62.629455,-7.07107 7.40783,-3.70391 12.02217,-10.55677 19.1929,-14.14213 21.6092798,-10.80464 42.28347,-23.09058 56.56854,-37.37565 4.00146,-4.00146 10.32388,1.40406 15.15229,-1.01015 7.87302,-3.93651 17.02706,-9.01861 25.25381,-13.13198 23.47954,-11.73977 49.431915,-40.76467 80.812195,-30.30458 13.93621,4.6454 45.60061,37.51938 58.58885,50.50763 14.09694,14.09693 34.55266,29.76945 50.50763,40.4061 7.84764,5.23176 21.31223,1.05967 29.29442,5.05076 4.02197,2.01099 4.90573,5.67585 9.09138,7.07107"
       inkscape:connector-curvature="0" />
    <flowRoot
       xml:space="preserve"
       id="flowRoot4663"
       style="font-size:32px;font-style:normal;font-weight:normal;line-height:125%;letter-spacing:0px;word-spacing:0px;fill:#000000;fill-opacity:1;stroke:none;font-family:Sans"
       transform="translate(364.66506,867.72104)"><flowRegion
         id="flowRegion4665"><rect
           id="rect4667"
           width="125.25891"
           height="51.517773"
           x="11.111678"
           y="77.56498"
           style="font-size:32px" /></flowRegion><flowPara
         id="flowPara4669">q (x-ct)</flowPara></flowRoot>    <flowRoot
       xml:space="preserve"
       id="flowRoot4663-5"
       style="font-size:32px;font-style:normal;font-weight:normal;line-height:125%;letter-spacing:0px;word-spacing:0px;fill:#000000;fill-opacity:1;stroke:none;font-family:Sans"
       transform="translate(439.91862,933.38424)"><flowRegion
         id="flowRegion4665-3"><rect
           id="rect4667-7"
           width="52.527931"
           height="52.527931"
           x="11.111678"
           y="77.56498"
           style="font-size:32px" /></flowRegion><flowPara
         id="flowPara4669-3">x</flowPara></flowRoot>    <path
       style="fill:none;stroke:#000000;stroke-width:2;stroke-linecap:butt;stroke-linejoin:miter;stroke-miterlimit:4;stroke-opacity:1;stroke-dasharray:none;marker-end:url(#Arrow2Mend)"
       d="m 192.69379,926.0994 106.76445,0"
       id="path4866"
       inkscape:connector-curvature="0" />
    <flowRoot
       xml:space="preserve"
       id="flowRoot4663-4"
       style="font-size:32px;font-style:normal;font-weight:normal;line-height:125%;letter-spacing:0px;word-spacing:0px;fill:#000000;fill-opacity:1;stroke:none;font-family:Sans"
       transform="translate(225.76629,843.48061)"><flowRegion
         id="flowRegion4665-2"><rect
           id="rect4667-1"
           width="62.629459"
           height="49.497475"
           x="11.111678"
           y="77.56498"
           style="font-size:32px" /></flowRegion><flowPara
         id="flowPara4669-9">ct</flowPara></flowRoot>    <path
       style="fill:none;stroke:#000000;stroke-width:2;stroke-linecap:butt;stroke-linejoin:miter;stroke-miterlimit:4;stroke-opacity:1;stroke-dasharray:none"
       d="m -29.840106,1007.0115 c 8.793616,-4.6662 18.418722,-7.76001 28.2842701,-9.09133 10.4853437,-1.41496 21.1224119,-0.84833 31.6997179,-1.10355 10.577307,-0.25523 21.384222,-1.40378 30.929737,-5.96752 7.198775,-3.44175 13.374264,-8.68213 19.192895,-14.14213 8.408223,-7.88998 16.289567,-16.38721 25.396126,-23.45973 9.10657,-7.07251 19.70123,-12.74886 31.17241,-13.91592 5.03943,-0.5127 10.16061,-0.14883 15.15229,-1.01015 9.43997,-1.62889 17.54551,-7.4444 25.25381,-13.13198 11.95604,-8.82178 23.96329,-17.79494 37.46823,-23.99067 13.50495,-6.19574 28.82618,-9.4769 43.34397,-6.31391 12.89627,2.80971 24.29918,10.50372 33.69878,19.76956 9.39961,9.26584 17.04214,20.12589 24.89007,30.73807 6.5666,8.87952 13.36517,17.68451 21.60418,25.03874 8.23902,7.35424 18.0654,13.24537 28.90345,15.36736 4.88513,0.95646 9.88348,1.13578 14.83767,1.62085 4.95419,0.48507 9.95673,1.30173 14.45675,3.42991 3.49859,1.65458 6.62652,4.08741 9.09138,7.07107"
       id="path4659-8"
       inkscape:path-effect="#path-effect4661-3"
       inkscape:original-d="m -29.840106,1007.0115 c 0.65834,-8.06858 14.52982,-4.5065 28.2842701,-9.09133 10.9585399,-3.65285 53.7138949,-2.61329 62.6294549,-7.07107 7.40783,-3.70391 12.022165,-10.55677 19.192895,-14.14213 21.609276,-10.80464 42.283466,-23.09058 56.568536,-37.37565 4.00146,-4.00146 10.32388,1.40406 15.15229,-1.01015 7.87302,-3.93651 17.02706,-9.01861 25.25381,-13.13198 23.47955,-11.73977 49.43192,-40.76467 80.8122,-30.30458 13.93621,4.6454 45.60061,37.51938 58.58885,50.50763 14.09694,14.09693 34.55266,29.76945 50.50763,40.4061 7.84764,5.23176 21.31223,1.05967 29.29442,5.05076 4.02197,2.01099 4.90573,5.67585 9.09138,7.07107"
       inkscape:connector-curvature="0" />
    <flowRoot
       xml:space="preserve"
       id="flowRoot4663-9"
       style="font-size:32px;font-style:normal;font-weight:normal;line-height:125%;letter-spacing:0px;word-spacing:0px;fill:#000000;fill-opacity:1;stroke:none;font-family:Sans"
       transform="translate(66.641694,779.06229)"><flowRegion
         id="flowRegion4665-21"><rect
           id="rect4667-2"
           width="125.25891"
           height="51.517773"
           x="11.111678"
           y="77.56498"
           style="font-size:32px" /></flowRegion><flowPara
         id="flowPara4669-0">q (x)</flowPara></flowRoot>    <flowRoot
       xml:space="preserve"
       id="flowRoot6308-3"
       style="font-size:13px;font-style:normal;font-weight:normal;line-height:125%;letter-spacing:0px;word-spacing:0px;fill:#000000;fill-opacity:1;stroke:none;font-family:Sans"
       transform="translate(311.09862,862.31766)"><flowRegion
         id="flowRegion6310-0"><rect
           id="rect6312-2"
           width="63.63961"
           height="32.324883"
           x="-212.13203"
           y="23.603998" /></flowRegion><flowPara
         id="flowPara6314-3">0</flowPara></flowRoot>    <rect
       style="opacity:1;color:#000000;fill:#ffffff;fill-opacity:1;fill-rule:nonzero;stroke:none;stroke-width:2;stroke-linecap:round;stroke-linejoin:miter;stroke-miterlimit:4;stroke-opacity:1;stroke-dasharray:4, 2;stroke-dashoffset:0;marker:none;visibility:visible;display:inline;overflow:visible;enable-background:accumulate"
       id="rect6393"
       width="39.39595"
       height="94.954338"
       x="-21.213203"
       y="122.59895"
       transform="translate(0,790.36215)"
       ry="0.81119537" />
    <flowRoot
       xml:space="preserve"
       id="flowRoot6308-3-6"
       style="font-size:13px;font-style:normal;font-weight:normal;line-height:125%;letter-spacing:0px;word-spacing:0px;fill:#000000;fill-opacity:1;stroke:none;font-family:Sans"
       transform="translate(608.01308,949.83216)"><flowRegion
         id="flowRegion6310-0-7"><rect
           id="rect6312-2-1"
           width="63.63961"
           height="32.324883"
           x="-212.13203"
           y="23.603998" /></flowRegion><flowPara
         id="flowPara6314-3-2">0</flowPara></flowRoot>  </g>
</svg>
